<?xml version="1.0" encoding="UTF-8"?>
<svg id="Layer_1" data-name="Layer 1" xmlns="http://www.w3.org/2000/svg" viewBox="0 0 612 512">
  <defs>
    <style>
      .cls-1 {
        fill: none;
        fill-rule: evenodd;
        stroke-width: 0px;
      }
    </style>
  </defs>
  <path class="cls-1" d="m303,151h7c3.56,5.22,5.19,6.98,5,17-4.1,5.18-8.34,14.14-10,21h3c4.54-6.67,25.7-17.96,34-21h19l1,3c4.16,7.19-4.52,17.46-8,21-4.45,4.53-9.64,10.62-16,13-4.21,1.57-7.33.17-11,2-10.09,5.02-20.03,12.66-28,20,.9,4.86,2.97,10.16,7,12,3.33,2.31,21.74,9,26,10,12.6,2.96,32.34-5.8,47-1,21.26,6.96,38.4,28.21,44,51v27c5.2,3.21,14.98,6.62,17,13,5.32,16.81-17.39,32.18-27,36-7.39,2.94-15.88,1.22-24,4-6.23,2.13-12.32,8.18-19,10l-59-2c-6.68-1.9-8.52-9.05-14-11-14.41-5.13-25.49,7.42-28-12,1.55-1.93,1.48-4.86,3-7l7-5h1l-1-8c1.07-3.36,4.12-4.36,5-9-16.66-3.82-31.02-17.47-36-33l-3-20c-6.37-5.5-15.18-5.81-18-15-1.87-6.11,1.9-13.1,3-17,3.52-12.51,4.26-33.02,16-37,8.26-5.53,21.57-2.86,27-11l3-11c3.48-8.32,13.68-32.24,20-37,1.98-1.49,5.05-1.55,7-3Z"/>
  <path class="cls-1" d="m603,80l-20,232c-5.07-.11-10.05-1.79-14-3h-6c-7.77-2.4-18.22-3.62-26-6h-6v-1h-5v-1h-6c-16.38-5.04-36.58-6-53-11h-6c-7.77-2.38-18.22-3.64-26-6h-6v-1c-3.74-1.15-8.51.27-11-2h-1l-1-5-3-2v-2l-2-1v-2l-3-2-6-7h-2l-3-4h-2l-1-2h-2l-2-3h-3l-1-2h-2v-1l-4-1v-1l-31-1v1l-17,1v-1h-5v-1l-6-2v-1h-2v-1l-14-4c-1.3-2.73-4.73-7.55-3-10v-2l3-1,3-4,5-1,2-3h2l1-2h3l1-2,4-1,1-2h3v-1l6-1,1,1v-1l3-1,1-2,6-2,5-6h2l2-2v-2l4-3c2.86-4.23,4.91-11.17,5-18h-1v-2l-3-2v-1h-20c-2.91,4.5-3.5,1.17-8,4l-1,2-3,1v1l-5,1v1h-2l-1,2-4,1-1,2h-2l-1,2h-2v1l-3,2v-2c3.92-3.16,13.26-22.37,8-28-1.61-6.56-8.67-6.27-17-6-2.07,3.11-1.51.43-4,2l-1,2h-1v2l-2,1v3l-3,2-2,6-3,2v4h-1l-1,4h-1l-3,9h-1l-1,4h-1l-3,11c-2.31,1.01-4.51,1.79-7,3v1h-3v1h-2v1h-4v1h-5v1h-4v1h-2v1h-2l-6,8v2h-1v3h-1v4h-1v3h-1v3h-1v3h-1v3h-1l-1,9c-.74,2.36-1.91,4.38-2,8v12l2,1v2h2v2h2c.89,3.36,3.58,4.34,7,5-1.14,1.14,0,.4-2,1v1l-4,1v1h-2v1h-2v1h-2v1h-2v1h-2v1l-4,1v1h-3v1h-2v1l-4,1v1h-2v1h-2v1h-2v1h-2v1h-2v1h-2v1l-4,1v1h-2v1h-2v1h-2v1h-2v1l-4,1v1l-4,1v1h-3v1h-2v1l-4,1v1h-2v1h-2v1h-2v1h-2v1h-2v1h-2v1l-4,1v1h-2v1h-2v1h-2v1h-2v1l-4,1v1l-4,1v1h-3v1h-2v1h-2v1h-2v1h-2v1h-2v1h-2v1h-2v1h-2v1l-4,1v1h-2v1h-2v1h-2v1h-2v1h-2v1l-4,1v1c-1.33.33-2.67.67-4,1v1l-9,3v1l-4,1v1l-4,1v1l-4,1v1h-2v1h-2v1h-2v1h-2v1l-6,2v1h-2v1h-2v1l-11,4c-13-82.66-26-165.34-39-248l15-3v-1l8-1v-1l8-1c9.9-3.41,22.09-5.61,32-9l24-5c25.03-8.6,53.82-12.42,79-21l28-6c11.93-4.27,26.81-6.87,39-11l12-2c6.03-2.04,13.97-3.97,20-6h4v-1h4v-1l323,23Z"/>
</svg>